<?xml version="1.0" standalone="no"?>
<!DOCTYPE svg PUBLIC "-//W3C//DTD SVG 20010904//EN"
 "http://www.w3.org/TR/2001/REC-SVG-20010904/DTD/svg10.dtd">
<svg version="1.0" xmlns="http://www.w3.org/2000/svg"
 width="512.000000pt" height="512.000000pt" viewBox="0 0 512.000000 512.000000"
 preserveAspectRatio="xMidYMid meet">
<metadata>
Created by potrace 1.11, written by Peter Selinger 2001-2013
</metadata>
<g transform="translate(0.000000,512.000000) scale(0.100000,-0.100000)"
fill="#000000" stroke="none">
<path d="M2212 4310 c-67 -22 -127 -65 -163 -116 -29 -40 -35 -58 -150 -464
l-70 -245 -357 -1 c-196 0 -372 -3 -390 -6 -133 -25 -236 -150 -235 -288 0
-119 69 -222 181 -273 44 -20 64 -21 339 -22 161 0 293 -1 293 -3 0 -1 -9 -35
-21 -75 -11 -39 -22 -79 -24 -87 -2 -8 -17 -64 -35 -125 -17 -60 -40 -141 -51
-180 -38 -135 -51 -180 -55 -192 -2 -7 -11 -13 -21 -14 -10 0 -162 -1 -338 -3
-315 -2 -321 -2 -365 -25 -63 -33 -90 -56 -127 -108 -66 -93 -66 -224 0 -325
17 -26 34 -48 37 -48 4 0 15 -8 26 -18 27 -25 86 -51 136 -60 24 -4 141 -7
261 -7 215 1 219 1 214 -19 -8 -34 -14 -53 -67 -241 -67 -233 -64 -219 -63
-297 3 -244 321 -370 501 -198 23 23 50 57 61 78 15 30 90 274 106 343 2 13
68 240 92 319 4 14 49 16 374 16 203 0 369 -4 369 -8 0 -4 -18 -72 -41 -150
-47 -167 -71 -252 -71 -255 0 -1 -6 -22 -13 -46 -20 -67 -13 -145 19 -210 91
-187 343 -223 491 -70 43 44 64 92 105 243 40 144 100 356 131 460 l11 36 373
0 373 0 66 33 c115 56 171 149 168 278 -2 108 -72 207 -181 256 -43 20 -65 22
-326 24 -154 1 -286 2 -293 2 -12 1 -10 31 5 71 3 8 7 20 8 25 10 41 155 544
162 560 8 19 18 20 338 20 l330 0 55 26 c222 104 237 400 25 524 -59 35 -87
38 -342 39 -128 0 -233 3 -233 6 0 3 11 46 25 95 14 50 27 97 30 105 2 8 20
74 41 145 20 72 38 155 39 185 5 107 -55 209 -156 265 -49 27 -63 30 -144 30
-76 0 -97 -4 -135 -25 -55 -30 -110 -85 -132 -131 -14 -28 -70 -209 -83 -268
-14 -58 -107 -379 -114 -391 -7 -13 -59 -15 -370 -15 -200 0 -365 3 -367 7 -4
7 6 50 51 203 37 128 65 226 72 255 4 14 6 53 6 86 0 142 -111 264 -255 280
-29 3 -57 7 -63 8 -5 2 -34 -5 -63 -14z m812 -1421 c6 -5 4 -10 -84 -319 -72
-254 -66 -234 -81 -290 -6 -25 -15 -49 -20 -54 -8 -10 -725 -13 -735 -3 -3 3
3 36 15 74 43 146 60 205 112 395 36 131 59 198 68 200 25 5 720 2 725 -3z"/>
</g>
</svg>
